<svg aria-hidden="true" style="position: absolute; width: 0; height: 0; overflow: hidden;" version="1.1" xmlns="http://www.w3.org/2000/svg" xmlns:xlink="http://www.w3.org/1999/xlink">
<defs>
<symbol id="icon-group-outline" viewBox="0 0 24 24">
<path d="M12 14c2.764 0 5-2.238 5-5s-2.236-5-5-5-5 2.238-5 5 2.236 5 5 5zM12 6c1.654 0 3 1.346 3 3s-1.346 3-3 3-3-1.346-3-3 1.346-3 3-3z"></path>
<path d="M20 15c1.381 0 2.5-1.117 2.5-2.5 0-1.381-1.119-2.5-2.5-2.5s-2.5 1.119-2.5 2.5c0 1.383 1.118 2.5 2.5 2.5zM20 11c0.827 0 1.5 0.673 1.5 1.5s-0.673 1.5-1.5 1.5-1.5-0.673-1.5-1.5 0.673-1.5 1.5-1.5z"></path>
<path d="M20 15.59c-1.331 0-2.332 0.406-2.917 0.969-1.115-0.918-2.878-1.559-5.083-1.559-2.266 0-3.995 0.648-5.092 1.564-0.596-0.565-1.608-0.975-2.908-0.975-2.188 0-3.5 1.091-3.5 2.183 0 0.545 1.312 1.092 3.5 1.092 0.604 0 1.146-0.051 1.623-0.133-0.010 0.090-0.040 0.18-0.040 0.27 0 1 2.405 2 6.417 2 3.762 0 6.417-1 6.417-2 0-0.085-0.011-0.17-0.021-0.255 0.463 0.073 0.996 0.118 1.604 0.118 2.051 0 3.5-0.547 3.5-1.092 0-1.092-1.373-2.182-3.5-2.182zM4 17.863c-1.309 0-2.068-0.207-2.417-0.354 0.239-0.405 1.003-0.92 2.417-0.92 1.107 0 1.837 0.351 2.208 0.706-0.084 0.114-0.169 0.227-0.235 0.344-0.452 0.119-1.108 0.224-1.973 0.224zM12 19c-2.163 0-3.501-0.312-4.184-0.561 0.521-0.678 1.918-1.439 4.184-1.439 2.169 0 3.59 0.761 4.148 1.425-0.755 0.27-2.162 0.575-4.148 0.575zM20 17.863c-0.914 0-1.546-0.103-1.973-0.213-0.072-0.127-0.155-0.252-0.248-0.375 0.356-0.345 1.071-0.685 2.221-0.685 1.324 0 2.141 0.501 2.404 0.911-0.39 0.163-1.205 0.362-2.404 0.362z"></path>
<path d="M4 15c1.381 0 2.5-1.119 2.5-2.5 0-1.379-1.119-2.5-2.5-2.5s-2.5 1.121-2.5 2.5c0 1.381 1.118 2.5 2.5 2.5zM4 11c0.827 0 1.5 0.673 1.5 1.5s-0.673 1.5-1.5 1.5-1.5-0.673-1.5-1.5 0.673-1.5 1.5-1.5z"></path>
</symbol>
<symbol id="icon-medal" viewBox="0 0 32 32">
<path d="M15.252 12.606v0 0c0.235-0.018 0.473-0.028 0.714-0.028 0.237 0 0.472 0.009 0.705 0.027l4.689-11.605 0.926 0.374-4.593 11.369c1.352 0.263 2.596 0.828 3.659 1.622l4.643-11.493 0.929 0.375-4.766 11.797c1.73 1.64 2.81 3.961 2.81 6.533 0 4.971-4.029 9-9 9s-9-4.029-9-9c0-2.569 1.077-4.887 2.803-6.527l-4.769-11.803 0.927-0.375 4.646 11.499c1.062-0.796 2.305-1.363 3.657-1.627l-4.594-11.37 0.927-0.375 4.689 11.606zM15.966 29.578c4.418 0 8-3.582 8-8s-3.582-8-8-8c-4.418 0-8 3.582-8 8s3.582 8 8 8v0 0zM15.966 24.27l-3.5 2.308 1.5-4-3-2h3.5l1.5-4 1.5 4h3.5l-3 2 1.5 4-3.5-2.308z"></path>
</symbol>
<symbol id="icon-clock" viewBox="0 0 32 32">
<path d="M15 10c0-0.552 0.448-1 1-1s1 0.448 1 1c0 0.552-0.448 1-1 1s-1-0.448-1-1zM15 22c0-0.552 0.448-1 1-1s1 0.448 1 1c0 0.552-0.448 1-1 1s-1-0.448-1-1zM9 16c0-0.552 0.448-1 1-1s1 0.448 1 1c0 0.552-0.448 1-1 1s-1-0.448-1-1zM21 16c0-0.552 0.448-1 1-1s1 0.448 1 1c0 0.552-0.448 1-1 1s-1-0.448-1-1zM10.757 20.242c0-0.552 0.448-1 1-1s1 0.448 1 1c0 0.552-0.448 1-1 1s-1-0.448-1-1zM10.757 11.757c0-0.552 0.448-1 1-1s1 0.448 1 1c0 0.552-0.448 1-1 1s-1-0.448-1-1zM19.242 20.242c0-0.552 0.448-1 1-1s1 0.448 1 1c0 0.552-0.448 1-1 1s-1-0.448-1-1zM26 14c-0.070 0-0.129 0.033-0.197 0.040-0.348-1.745-1.17-3.306-2.297-4.594l-1.436-7.812c-0.175-0.947-1.002-1.634-1.966-1.634h-8c-0.964 0-1.79 0.688-1.967 1.635l-1.4 7.549c-1.68 1.787-2.737 4.168-2.737 6.816 0 2.583 1.014 4.905 2.621 6.678l1.412 7.688c0.176 0.946 1.003 1.634 1.967 1.634h8c0.963 0 1.789-0.688 1.967-1.635l1.424-7.682c1.189-1.311 2.053-2.92 2.412-4.725 0.068 0.009 0.127 0.042 0.197 0.042 1.104 0 2-0.896 2-2 0-1.105-0.896-2-2-2zM12.104 2h8l1 5.387c-1.477-0.859-3.168-1.387-5-1.387-1.831 0-3.523 0.528-5 1.387l1-5.387zM20 30h-8l-1-5.387c1.476 0.858 3.168 1.387 5 1.387 1.831 0 3.524-0.529 5-1.387l-1 5.387zM16 24c-4.411 0-8-3.59-8-8s3.589-8 8-8 8 3.589 8 8c0 4.41-3.59 8-8 8zM20.941 11.026c0.121 0.121 0.133 0.316 0.028 0.449l-2.426 3.021-1.848 2.225c-0.189 0.182-0.449 0.275-0.699 0.277-0.269-0.002-0.52-0.106-0.707-0.292s-0.289-0.435-0.289-0.698c0-0.272 0.105-0.526 0.296-0.718l5.192-4.285c0.137-0.11 0.332-0.1 0.453 0.021z"></path>
</symbol>
<symbol id="icon-shopping-bag" viewBox="0 0 20 20">
<path d="M18.121 3.271c-0.295-0.256-1.906-1.731-2.207-1.991-0.299-0.259-0.756-0.28-1.102-0.28h-9.624c-0.345 0-0.802 0.021-1.102 0.28s-1.912 1.736-2.207 1.991c-0.297 0.256-0.543 0.643-0.464 1.192 0.079 0.551 1.89 13.661 1.937 13.973 0.046 0.311 0.318 0.557 0.648 0.564h12c0.33-0.007 0.602-0.253 0.648-0.565s1.858-13.422 1.938-13.973c0.078-0.548-0.168-0.935-0.465-1.191zM10 11.973c-3.248 0-3.943-4.596-4.087-5.543h1.837c0.276 1.381 0.904 3.744 2.25 3.744s1.975-2.363 2.25-3.744h1.838c-0.145 0.947-0.84 5.543-4.088 5.543zM3.17 4.006l1.83-2.006h10l1.83 2.006h-13.66z"></path>
</symbol>
<symbol id="icon-sweden" viewBox="0 0 20 20">
<path d="M18 4h-9v5h10v-4c0-0.553-0.447-1-1-1zM1 15c0 0.553 0.248 1 0.8 1h5.2v-5h-6v4zM9 16h9c0.553 0 1-0.447 1-1v-4h-10v5zM1 5v4h6v-5h-5.2c-0.552 0-0.8 0.447-0.8 1z"></path>
</symbol>
<symbol id="icon-star" viewBox="0 0 20 20">
<path d="M10 1.3l2.388 6.722h6.412l-5.232 3.948 1.871 6.928-5.439-4.154-5.438 4.154 1.87-6.928-5.233-3.948h6.412l2.389-6.722z"></path>
</symbol>
</defs>
</svg>
